<mxfile host="app.diagrams.net" modified="2024-06-26T03:58:55.107Z" agent="Mozilla/5.0 (Windows NT 10.0; Win64; x64) AppleWebKit/537.36 (KHTML, like Gecko) Chrome/126.0.0.0 Safari/537.36" etag="MU88XkHp6wYcqpzzrpfj" version="24.6.3" type="device">
  <diagram name="Page-1" id="8DhhsDx94kDCidMIDUEL">
    <mxGraphModel dx="1050" dy="557" grid="1" gridSize="10" guides="1" tooltips="1" connect="1" arrows="1" fold="1" page="1" pageScale="1" pageWidth="850" pageHeight="1100" math="0" shadow="0">
      <root>
        <mxCell id="0" />
        <mxCell id="1" parent="0" />
        <mxCell id="JMM15jTZGbXIVASH6mZp-1" value="" style="rounded=0;whiteSpace=wrap;html=1;" vertex="1" parent="1">
          <mxGeometry x="10" y="30" width="830" height="60" as="geometry" />
        </mxCell>
        <mxCell id="JMM15jTZGbXIVASH6mZp-3" value="" style="endArrow=none;html=1;rounded=0;" edge="1" parent="1">
          <mxGeometry width="50" height="50" relative="1" as="geometry">
            <mxPoint x="140" y="90" as="sourcePoint" />
            <mxPoint x="140.00000000000227" y="30" as="targetPoint" />
            <Array as="points">
              <mxPoint x="140" y="30" />
            </Array>
          </mxGeometry>
        </mxCell>
        <mxCell id="JMM15jTZGbXIVASH6mZp-4" value="" style="endArrow=none;html=1;rounded=0;" edge="1" parent="1">
          <mxGeometry width="50" height="50" relative="1" as="geometry">
            <mxPoint x="490" y="90" as="sourcePoint" />
            <mxPoint x="490" y="30" as="targetPoint" />
            <Array as="points">
              <mxPoint x="490" y="30" />
            </Array>
          </mxGeometry>
        </mxCell>
        <mxCell id="JMM15jTZGbXIVASH6mZp-5" value="" style="endArrow=none;html=1;rounded=0;" edge="1" parent="1">
          <mxGeometry width="50" height="50" relative="1" as="geometry">
            <mxPoint x="560" y="90" as="sourcePoint" />
            <mxPoint x="560" y="30" as="targetPoint" />
            <Array as="points">
              <mxPoint x="560" y="30" />
            </Array>
          </mxGeometry>
        </mxCell>
        <mxCell id="JMM15jTZGbXIVASH6mZp-6" value="" style="endArrow=none;html=1;rounded=0;" edge="1" parent="1">
          <mxGeometry width="50" height="50" relative="1" as="geometry">
            <mxPoint x="630" y="90" as="sourcePoint" />
            <mxPoint x="630" y="30" as="targetPoint" />
            <Array as="points">
              <mxPoint x="630" y="30" />
            </Array>
          </mxGeometry>
        </mxCell>
        <mxCell id="JMM15jTZGbXIVASH6mZp-7" value="" style="endArrow=none;html=1;rounded=0;" edge="1" parent="1">
          <mxGeometry width="50" height="50" relative="1" as="geometry">
            <mxPoint x="700" y="90" as="sourcePoint" />
            <mxPoint x="700" y="30" as="targetPoint" />
            <Array as="points">
              <mxPoint x="700" y="60" />
              <mxPoint x="700" y="30" />
            </Array>
          </mxGeometry>
        </mxCell>
        <mxCell id="JMM15jTZGbXIVASH6mZp-8" value="" style="endArrow=none;html=1;rounded=0;" edge="1" parent="1">
          <mxGeometry width="50" height="50" relative="1" as="geometry">
            <mxPoint x="770" y="90" as="sourcePoint" />
            <mxPoint x="770" y="30" as="targetPoint" />
            <Array as="points">
              <mxPoint x="770" y="30" />
            </Array>
          </mxGeometry>
        </mxCell>
        <mxCell id="JMM15jTZGbXIVASH6mZp-9" value="" style="endArrow=none;html=1;rounded=0;" edge="1" parent="1">
          <mxGeometry width="50" height="50" relative="1" as="geometry">
            <mxPoint x="280" y="90" as="sourcePoint" />
            <mxPoint x="280" y="30" as="targetPoint" />
            <Array as="points">
              <mxPoint x="280" y="30" />
            </Array>
          </mxGeometry>
        </mxCell>
        <mxCell id="JMM15jTZGbXIVASH6mZp-10" value="" style="endArrow=none;html=1;rounded=0;" edge="1" parent="1">
          <mxGeometry width="50" height="50" relative="1" as="geometry">
            <mxPoint x="350" y="90" as="sourcePoint" />
            <mxPoint x="350" y="30" as="targetPoint" />
            <Array as="points">
              <mxPoint x="350" y="30" />
            </Array>
          </mxGeometry>
        </mxCell>
        <mxCell id="JMM15jTZGbXIVASH6mZp-11" value="" style="endArrow=none;html=1;rounded=0;" edge="1" parent="1">
          <mxGeometry width="50" height="50" relative="1" as="geometry">
            <mxPoint x="420" y="90" as="sourcePoint" />
            <mxPoint x="420" y="30" as="targetPoint" />
            <Array as="points">
              <mxPoint x="420" y="30" />
            </Array>
          </mxGeometry>
        </mxCell>
        <mxCell id="JMM15jTZGbXIVASH6mZp-12" value="" style="endArrow=none;html=1;rounded=0;" edge="1" parent="1">
          <mxGeometry width="50" height="50" relative="1" as="geometry">
            <mxPoint x="210" y="90" as="sourcePoint" />
            <mxPoint x="210" y="30" as="targetPoint" />
            <Array as="points">
              <mxPoint x="210" y="30" />
            </Array>
          </mxGeometry>
        </mxCell>
        <mxCell id="JMM15jTZGbXIVASH6mZp-13" value="" style="whiteSpace=wrap;html=1;aspect=fixed;" vertex="1" parent="1">
          <mxGeometry x="15" y="100" width="410" height="410" as="geometry" />
        </mxCell>
        <mxCell id="JMM15jTZGbXIVASH6mZp-14" value="" style="whiteSpace=wrap;html=1;aspect=fixed;" vertex="1" parent="1">
          <mxGeometry x="430" y="100" width="410" height="410" as="geometry" />
        </mxCell>
        <mxCell id="JMM15jTZGbXIVASH6mZp-15" value="" style="endArrow=none;html=1;rounded=0;" edge="1" parent="1">
          <mxGeometry width="50" height="50" relative="1" as="geometry">
            <mxPoint x="70" y="90" as="sourcePoint" />
            <mxPoint x="70.00000000000227" y="30" as="targetPoint" />
            <Array as="points">
              <mxPoint x="70" y="30" />
            </Array>
          </mxGeometry>
        </mxCell>
        <mxCell id="JMM15jTZGbXIVASH6mZp-16" value="Format" style="rounded=1;whiteSpace=wrap;html=1;" vertex="1" parent="1">
          <mxGeometry x="380" y="520" width="120" height="40" as="geometry" />
        </mxCell>
        <mxCell id="JMM15jTZGbXIVASH6mZp-17" value="Save" style="rounded=1;whiteSpace=wrap;html=1;" vertex="1" parent="1">
          <mxGeometry x="720" y="520" width="120" height="40" as="geometry" />
        </mxCell>
        <mxCell id="JMM15jTZGbXIVASH6mZp-18" value="Clear" style="rounded=1;whiteSpace=wrap;html=1;" vertex="1" parent="1">
          <mxGeometry x="20" y="520" width="120" height="40" as="geometry" />
        </mxCell>
        <mxCell id="JMM15jTZGbXIVASH6mZp-19" value="Home" style="text;html=1;align=center;verticalAlign=middle;whiteSpace=wrap;rounded=0;" vertex="1" parent="1">
          <mxGeometry x="20" y="45" width="40" height="30" as="geometry" />
        </mxCell>
        <mxCell id="JMM15jTZGbXIVASH6mZp-21" value="Json Format" style="text;html=1;align=center;verticalAlign=middle;whiteSpace=wrap;rounded=0;" vertex="1" parent="1">
          <mxGeometry x="70" y="40" width="60" height="30" as="geometry" />
        </mxCell>
        <mxCell id="JMM15jTZGbXIVASH6mZp-22" value="Remove Spaces" style="text;html=1;align=center;verticalAlign=middle;whiteSpace=wrap;rounded=0;" vertex="1" parent="1">
          <mxGeometry x="140" y="45" width="60" height="30" as="geometry" />
        </mxCell>
        <mxCell id="JMM15jTZGbXIVASH6mZp-23" value="Convert Case" style="text;html=1;align=center;verticalAlign=middle;whiteSpace=wrap;rounded=0;" vertex="1" parent="1">
          <mxGeometry x="210" y="40" width="60" height="30" as="geometry" />
        </mxCell>
      </root>
    </mxGraphModel>
  </diagram>
</mxfile>
